<svg width="20" height="20" viewBox="0 0 20 20" fill="none" xmlns="http://www.w3.org/2000/svg">
<path d="M16.6667 8.33341C16.6667 12.4942 12.0508 16.8276 10.5008 18.1659C10.2042 18.389 9.79581 18.389 9.49918 18.1659C7.94918 16.8276 3.33334 12.4942 3.33334 8.33341C3.33334 4.65398 6.32058 1.66675 10 1.66675C13.6794 1.66675 16.6667 4.65398 16.6667 8.33341" stroke="white" stroke-width="1.66667" stroke-linecap="round" stroke-linejoin="round"/>
<path d="M7.5 8.33325C7.5 9.71304 8.62021 10.8333 10 10.8333C11.3798 10.8333 12.5 9.71304 12.5 8.33325C12.5 6.95346 11.3798 5.83325 10 5.83325C8.62021 5.83325 7.5 6.95346 7.5 8.33325V8.33325" stroke="white" stroke-width="1.66667" stroke-linecap="round" stroke-linejoin="round"/>
</svg>
